<svg width="94" height="19" viewBox="0 0 94 19" fill="none" xmlns="http://www.w3.org/2000/svg">
<path d="M11.832 10.4121C12.0605 10.0312 12.1875 9.625 12.1875 9.14258C12.1875 8.02539 11.2227 6.98438 10.0039 6.98438H9.06445C9.19141 6.6543 9.29297 6.27344 9.29297 5.79102C9.29297 3.9375 8.32812 3.125 6.88086 3.125C5.30664 3.125 5.4082 5.53711 5.05273 5.89258C4.46875 6.47656 3.7832 7.59375 3.30078 8H0.8125C0.355469 8 0 8.38086 0 8.8125V14.9062C0 15.3633 0.355469 15.7188 0.8125 15.7188H2.4375C2.79297 15.7188 3.12305 15.4648 3.19922 15.1348C4.3418 15.1602 5.12891 16.125 7.71875 16.125C7.92188 16.125 8.125 16.125 8.30273 16.125C10.2578 16.125 11.1211 15.1348 11.1465 13.7129C11.502 13.2559 11.6797 12.6211 11.6035 12.0117C11.8574 11.5547 11.9336 10.9961 11.832 10.4121ZM10.2578 11.7832C10.5879 12.3164 10.2832 13.0273 9.90234 13.2559C10.1055 14.4746 9.44531 14.9062 8.55664 14.9062H7.5918C5.78906 14.9062 4.5957 13.9668 3.25 13.9668V9.21875H3.50391C4.24023 9.21875 5.23047 7.44141 5.91602 6.75586C6.62695 6.04492 6.39844 4.82617 6.88086 4.34375C8.07422 4.34375 8.07422 5.18164 8.07422 5.79102C8.07422 6.78125 7.36328 7.23828 7.36328 8.20312H10.0039C10.5371 8.20312 10.9434 8.68555 10.9688 9.16797C10.9688 9.625 10.6387 10.1074 10.3848 10.1074C10.7402 10.4883 10.8164 11.2754 10.2578 11.7832ZM2.23438 14.0938C2.23438 14.4492 1.95508 14.7031 1.625 14.7031C1.26953 14.7031 1.01562 14.4492 1.01562 14.0938C1.01562 13.7637 1.26953 13.4844 1.625 13.4844C1.95508 13.4844 2.23438 13.7637 2.23438 14.0938Z" fill="url(#paint0_linear_213_487)"/>
<path d="M24.122 8.794C24.6767 8.95 25.097 9.21867 25.383 9.6C25.6777 9.98133 25.825 10.4537 25.825 11.017C25.825 11.8143 25.5563 12.4427 25.019 12.902C24.4817 13.3613 23.7493 13.591 22.822 13.591C22.2587 13.591 21.717 13.4957 21.197 13.305C20.6857 13.1143 20.2523 12.8543 19.897 12.525C19.7583 12.395 19.689 12.2477 19.689 12.083C19.689 11.953 19.7237 11.8447 19.793 11.758C19.8623 11.6713 19.9447 11.628 20.04 11.628C20.1613 11.628 20.2827 11.6757 20.404 11.771C20.8027 12.0917 21.1927 12.3257 21.574 12.473C21.9553 12.6203 22.367 12.694 22.809 12.694C23.4503 12.694 23.9357 12.5467 24.265 12.252C24.603 11.9573 24.772 11.5327 24.772 10.978C24.772 9.86 24.07 9.301 22.666 9.301H21.977C21.8383 9.301 21.7257 9.25767 21.639 9.171C21.561 9.07567 21.522 8.96733 21.522 8.846C21.522 8.72467 21.561 8.62067 21.639 8.534C21.7257 8.44733 21.8383 8.404 21.977 8.404H22.458C23.134 8.404 23.654 8.25667 24.018 7.962C24.382 7.65867 24.564 7.22533 24.564 6.662C24.564 6.168 24.4167 5.791 24.122 5.531C23.8273 5.26233 23.4113 5.128 22.874 5.128C22.4667 5.128 22.0723 5.206 21.691 5.362C21.3097 5.50933 20.9283 5.739 20.547 6.051C20.4257 6.14633 20.3043 6.194 20.183 6.194C20.0877 6.194 20.0053 6.15067 19.936 6.064C19.8667 5.97733 19.832 5.869 19.832 5.739C19.832 5.57433 19.9013 5.427 20.04 5.297C20.3953 4.96767 20.8243 4.70767 21.327 4.517C21.8383 4.32633 22.3627 4.231 22.9 4.231C23.732 4.231 24.395 4.44333 24.889 4.868C25.383 5.29267 25.6257 5.86467 25.617 6.584C25.6083 7.104 25.4697 7.559 25.201 7.949C24.941 8.339 24.5813 8.62067 24.122 8.794ZM33.7239 10.627C33.8799 10.627 34.0013 10.6703 34.0879 10.757C34.1746 10.835 34.2179 10.939 34.2179 11.069C34.2179 11.3637 34.0533 11.511 33.7239 11.511H32.7489V13.019C32.7489 13.1923 32.6969 13.3267 32.5929 13.422C32.4976 13.5173 32.3719 13.565 32.2159 13.565C32.0599 13.565 31.9343 13.5173 31.8389 13.422C31.7436 13.3267 31.6959 13.1923 31.6959 13.019V11.511H27.8479C27.6919 11.511 27.5706 11.4677 27.4839 11.381C27.3973 11.2943 27.3539 11.186 27.3539 11.056C27.3539 10.9347 27.4016 10.8003 27.4969 10.653L31.7479 4.504C31.8693 4.348 32.0253 4.27 32.2159 4.27C32.3633 4.27 32.4889 4.31767 32.5929 4.413C32.6969 4.50833 32.7489 4.64267 32.7489 4.816V10.627H33.7239ZM28.5629 10.627H31.6959V6.116L28.5629 10.627Z" fill="#5A6980"/>
<path d="M58.3125 6.78125C58.0332 6.80664 57.7539 6.83203 57.5 6.9082C57.627 7.11133 57.6777 7.36523 57.7031 7.59375C57.7031 8.38086 57.043 9.01562 56.2812 9.01562C56.0273 9.01562 55.7734 8.96484 55.5957 8.83789C55.5195 9.0918 55.4688 9.3457 55.4688 9.625C55.4688 11.1992 56.7383 12.4688 58.3125 12.4688C59.8867 12.4688 61.1562 11.1992 61.1562 9.625C61.1562 8.07617 59.8867 6.80664 58.3125 6.80664V6.78125ZM65.5234 9.26953C64.1523 6.57812 61.4102 4.75 58.3125 4.75C55.1895 4.75 52.4473 6.57812 51.0762 9.26953C51.0254 9.37109 51 9.49805 51 9.625C51 9.77734 51.0254 9.9043 51.0762 10.0059C52.4473 12.6973 55.1895 14.5 58.3125 14.5C61.4102 14.5 64.1523 12.6973 65.5234 10.0059C65.5742 9.9043 65.5996 9.77734 65.5996 9.65039C65.5996 9.49805 65.5742 9.37109 65.5234 9.26953ZM58.3125 13.2812C55.7988 13.2812 53.4883 11.8848 52.2695 9.625C53.4883 7.36523 55.7988 5.96875 58.3125 5.96875C60.8008 5.96875 63.1113 7.36523 64.3301 9.625C63.1113 11.8848 60.8008 13.2812 58.3125 13.2812Z" fill="url(#paint1_linear_213_487)"/>
<path d="M76.604 12.603C76.76 12.603 76.8813 12.642 76.968 12.72C77.0547 12.798 77.098 12.9063 77.098 13.045C77.098 13.3483 76.9333 13.5 76.604 13.5H71.508C71.3607 13.5 71.2393 13.4567 71.144 13.37C71.0487 13.2747 71.001 13.162 71.001 13.032C71.001 12.8673 71.0617 12.7243 71.183 12.603L74.316 9.158C74.7493 8.67267 75.0613 8.23933 75.252 7.858C75.4513 7.468 75.551 7.078 75.551 6.688C75.551 6.18533 75.4037 5.79967 75.109 5.531C74.823 5.26233 74.4157 5.128 73.887 5.128C73.471 5.128 73.0723 5.206 72.691 5.362C72.3097 5.50933 71.9283 5.739 71.547 6.051C71.417 6.155 71.2957 6.207 71.183 6.207C71.0877 6.207 71.0053 6.16367 70.936 6.077C70.8667 5.98167 70.832 5.869 70.832 5.739C70.832 5.557 70.9013 5.40967 71.04 5.297C71.3953 4.96767 71.8287 4.70767 72.34 4.517C72.8513 4.32633 73.3757 4.231 73.913 4.231C74.7363 4.231 75.3907 4.44767 75.876 4.881C76.37 5.31433 76.617 5.89933 76.617 6.636C76.617 7.16467 76.4957 7.67167 76.253 8.157C76.019 8.64233 75.629 9.184 75.083 9.782L72.483 12.603H76.604ZM81.6949 13.604C80.6463 13.604 79.8489 13.2053 79.3029 12.408C78.7569 11.6107 78.4839 10.4493 78.4839 8.924C78.4839 7.39 78.7569 6.22433 79.3029 5.427C79.8489 4.62967 80.6463 4.231 81.6949 4.231C82.7436 4.231 83.5409 4.62967 84.0869 5.427C84.6329 6.21567 84.9059 7.377 84.9059 8.911C84.9059 10.445 84.6329 11.6107 84.0869 12.408C83.5409 13.2053 82.7436 13.604 81.6949 13.604ZM81.6949 12.707C82.4229 12.707 82.9603 12.3993 83.3069 11.784C83.6536 11.1687 83.8269 10.211 83.8269 8.911C83.8269 7.60233 83.6536 6.64467 83.3069 6.038C82.9689 5.43133 82.4316 5.128 81.6949 5.128C80.9669 5.128 80.4296 5.43567 80.0829 6.051C79.7363 6.65767 79.5629 7.611 79.5629 8.911C79.5629 10.211 79.7363 11.1687 80.0829 11.784C80.4296 12.3993 80.9669 12.707 81.6949 12.707ZM90.7118 8.794C91.2665 8.95 91.6868 9.21867 91.9728 9.6C92.2675 9.98133 92.4148 10.4537 92.4148 11.017C92.4148 11.8143 92.1462 12.4427 91.6088 12.902C91.0715 13.3613 90.3392 13.591 89.4118 13.591C88.8485 13.591 88.3068 13.4957 87.7868 13.305C87.2755 13.1143 86.8422 12.8543 86.4868 12.525C86.3482 12.395 86.2788 12.2477 86.2788 12.083C86.2788 11.953 86.3135 11.8447 86.3828 11.758C86.4522 11.6713 86.5345 11.628 86.6298 11.628C86.7512 11.628 86.8725 11.6757 86.9938 11.771C87.3925 12.0917 87.7825 12.3257 88.1638 12.473C88.5452 12.6203 88.9568 12.694 89.3988 12.694C90.0402 12.694 90.5255 12.5467 90.8548 12.252C91.1928 11.9573 91.3618 11.5327 91.3618 10.978C91.3618 9.86 90.6598 9.301 89.2558 9.301H88.5668C88.4282 9.301 88.3155 9.25767 88.2288 9.171C88.1508 9.07567 88.1118 8.96733 88.1118 8.846C88.1118 8.72467 88.1508 8.62067 88.2288 8.534C88.3155 8.44733 88.4282 8.404 88.5668 8.404H89.0478C89.7238 8.404 90.2438 8.25667 90.6078 7.962C90.9718 7.65867 91.1538 7.22533 91.1538 6.662C91.1538 6.168 91.0065 5.791 90.7118 5.531C90.4172 5.26233 90.0012 5.128 89.4638 5.128C89.0565 5.128 88.6622 5.206 88.2808 5.362C87.8995 5.50933 87.5182 5.739 87.1368 6.051C87.0155 6.14633 86.8942 6.194 86.7728 6.194C86.6775 6.194 86.5952 6.15067 86.5258 6.064C86.4565 5.97733 86.4218 5.869 86.4218 5.739C86.4218 5.57433 86.4912 5.427 86.6298 5.297C86.9852 4.96767 87.4142 4.70767 87.9168 4.517C88.4282 4.32633 88.9525 4.231 89.4898 4.231C90.3218 4.231 90.9848 4.44333 91.4788 4.868C91.9728 5.29267 92.2155 5.86467 92.2068 6.584C92.1982 7.104 92.0595 7.559 91.7908 7.949C91.5308 8.339 91.1712 8.62067 90.7118 8.794Z" fill="#5A6980"/>
<defs>
<linearGradient id="paint0_linear_213_487" x1="0" y1="0.5" x2="18.9744" y2="7.13595" gradientUnits="userSpaceOnUse">
<stop stop-color="#C381DB"/>
<stop offset="1" stop-color="#4E92F9"/>
</linearGradient>
<linearGradient id="paint1_linear_213_487" x1="51" y1="0.5" x2="69.9744" y2="7.13595" gradientUnits="userSpaceOnUse">
<stop stop-color="#C381DB"/>
<stop offset="1" stop-color="#4E92F9"/>
</linearGradient>
</defs>
</svg>
