<svg width="46" height="76" viewBox="0 0 46 76" fill="none" xmlns="http://www.w3.org/2000/svg">
<path d="M42.3982 69.08C42.3982 70.9261 40.9017 72.4226 39.0556 72.4226L5.98157 72.4226C4.13551 72.4226 2.63898 70.9261 2.63898 69.08L2.63898 34.6002C2.63898 33.9578 2.82409 33.329 3.17215 32.7891L21.6212 4.17032C22.2366 3.21564 23.2948 2.63882 24.4306 2.63882L28.2198 2.63882C30.6539 2.63882 32.2718 5.15736 31.2598 7.37115L23.9899 23.2738C21.3799 28.983 25.5524 35.4782 31.8299 35.4782L39.0556 35.4782C40.9017 35.4782 42.3982 36.9747 42.3982 38.8208L42.3982 69.08Z" stroke="url(#paint0_linear_213_40)" stroke-width="5.27778"/>
<defs>
<linearGradient id="paint0_linear_213_40" x1="22.5186" y1="75.0615" x2="22.5186" y2="-6.30038e-05" gradientUnits="userSpaceOnUse">
<stop stop-color="#B4D2FF"/>
<stop offset="1" stop-color="#D0E3FF"/>
</linearGradient>
</defs>
</svg>
